<svg width="31" height="31" viewBox="0 0 31 31" fill="none" xmlns="http://www.w3.org/2000/svg">
<rect x="0.726562" y="0.365234" width="30" height="30" rx="15" fill="#767680" fill-opacity="0.12"/>
<path d="M9.97705 21.3267C9.83545 21.1851 9.74023 21.019 9.69141 20.8286C9.64746 20.6333 9.6499 20.4429 9.69873 20.2573C9.74756 20.0669 9.83789 19.9058 9.96973 19.7739L14.1519 15.5845L9.96973 11.4023C9.83789 11.2705 9.74756 11.1094 9.69873 10.9189C9.65479 10.7285 9.65479 10.5381 9.69873 10.3477C9.74756 10.1572 9.84033 9.99121 9.97705 9.84961C10.1187 9.70312 10.2847 9.60791 10.4751 9.56396C10.6704 9.52002 10.8633 9.52002 11.0537 9.56396C11.2441 9.60791 11.4077 9.69824 11.5444 9.83496L15.7266 14.0098L19.9014 9.83496C20.0381 9.69824 20.2017 9.60791 20.3921 9.56396C20.5825 9.51514 20.7705 9.51514 20.9561 9.56396C21.1465 9.61279 21.3149 9.70801 21.4614 9.84961C21.603 9.99121 21.6982 10.1572 21.7471 10.3477C21.7959 10.5381 21.7959 10.7285 21.7471 10.9189C21.7031 11.1045 21.6128 11.2681 21.4761 11.4097L17.3013 15.5845L21.4761 19.7666C21.6128 19.9033 21.7031 20.0669 21.7471 20.2573C21.791 20.4478 21.7886 20.6382 21.7397 20.8286C21.6958 21.019 21.603 21.1851 21.4614 21.3267C21.3198 21.4683 21.1538 21.561 20.9634 21.605C20.7729 21.6538 20.5825 21.6562 20.3921 21.6123C20.2017 21.5684 20.0381 21.4756 19.9014 21.334L15.7266 17.1592L11.5444 21.3413C11.4077 21.4731 11.2441 21.561 11.0537 21.605C10.8682 21.6538 10.6777 21.6538 10.4824 21.605C10.292 21.561 10.1235 21.4683 9.97705 21.3267Z" fill="#3C3C43" fill-opacity="0.6"/>
</svg>
