<svg width="30" height="30" viewBox="0 0 30 30" fill="none" xmlns="http://www.w3.org/2000/svg">
<rect width="30" height="30" rx="15" fill="#767680" fill-opacity="0.12"/>
<path d="M15.0078 19.8516C14.6328 19.8516 14.2891 19.6979 13.9766 19.3906L8.19531 13.4766C8.08073 13.3568 7.99219 13.2266 7.92969 13.0859C7.8724 12.9401 7.84375 12.7839 7.84375 12.6172C7.84375 12.3828 7.89844 12.1719 8.00781 11.9844C8.1224 11.7917 8.27344 11.6406 8.46094 11.5312C8.64844 11.4167 8.85677 11.3594 9.08594 11.3594C9.4349 11.3594 9.74219 11.4922 10.0078 11.7578L15.3281 17.2344H14.6953L20 11.7578C20.2656 11.4922 20.5703 11.3594 20.9141 11.3594C21.1432 11.3594 21.3516 11.4167 21.5391 11.5312C21.7266 11.6406 21.875 11.7917 21.9844 11.9844C22.099 12.1719 22.1562 12.3828 22.1562 12.6172C22.1562 12.9557 22.0391 13.2422 21.8047 13.4766L16.0312 19.3906C15.875 19.5469 15.7135 19.6615 15.5469 19.7344C15.3802 19.8073 15.2005 19.8464 15.0078 19.8516Z" fill="#7A777B"/>
</svg>
