<svg width="40" height="40" viewBox="0 0 40 40" fill="none" xmlns="http://www.w3.org/2000/svg">
<rect x="0.5" y="0.5" width="39" height="39" rx="19.5" fill="#004874"/>
<rect x="0.5" y="0.5" width="39" height="39" rx="19.5" stroke="white"/>
<path d="M12 8L29 8L29 18L28 18L28 9L13 9L13 18L12 18L12 8ZM29 31L29 21L28 21L28 30L13 30L13 21L12 21L12 31L29 31ZM32 20L32 19L30 19L30 20L32 20ZM29 20L29 19L27 19L27 20L29 20ZM26 20L26 19L24 19L24 20L26 20ZM23 20L23 19L21 19L21 20L23 20ZM20 20L20 19L18 19L18 20L20 20ZM17 20L17 19L15 19L15 20L17 20ZM14 20L14 19L12 19L12 20L14 20ZM11 20L11 19L9 19L9 20L11 20Z" fill="white"/>
</svg>
