<svg width="40" height="40" viewBox="0 0 40 40" fill="none" xmlns="http://www.w3.org/2000/svg">
<rect x="0.5" y="0.5" width="39" height="39" rx="19.5" fill="white"/>
<rect x="0.5" y="0.5" width="39" height="39" rx="19.5" stroke="#DFDFDF"/>
<path d="M29 21H11V20H29V21ZM20 12.5C19.1728 12.5 18.5 13.1728 18.5 14C18.5 14.8272 19.1728 15.5 20 15.5C20.8272 15.5 21.5 14.8272 21.5 14C21.5 13.1728 20.8272 12.5 20 12.5ZM20 25.5C19.1728 25.5 18.5 26.1728 18.5 27C18.5 27.8272 19.1728 28.5 20 28.5C20.8272 28.5 21.5 27.8272 21.5 27C21.5 26.1728 20.8272 25.5 20 25.5Z" fill="#6A6A6A"/>
</svg>
