<svg width="40" height="40" viewBox="0 0 40 40" fill="none" xmlns="http://www.w3.org/2000/svg">
<rect x="0.5" y="0.5" width="39" height="39" rx="19.5" fill="white"/>
<rect x="0.5" y="0.5" width="39" height="39" rx="19.5" stroke="#DFDFDF"/>
<path d="M30 14V25.0669L27.286 22.353C27.2004 22.2674 27.0869 22.2156 26.9663 22.207C26.8456 22.1983 26.7259 22.2335 26.629 22.306L24.45 23.94C24.3595 24.0077 24.2488 24.043 24.1357 24.0401C24.0227 24.0372 23.9139 23.9963 23.827 23.924L20.218 20.917C20.1216 20.8368 19.9987 20.7956 19.8735 20.8013C19.7483 20.8071 19.6297 20.8593 19.541 20.948L15.914 24.576C15.8667 24.6181 15.8114 24.6503 15.7514 24.6707C15.6913 24.6911 15.6279 24.6993 15.5646 24.6947C15.5014 24.6901 15.4398 24.6729 15.3833 24.6441C15.3269 24.6153 15.2768 24.5755 15.236 24.527C15.1409 24.4359 15.014 24.3858 14.8824 24.3872C14.7508 24.3887 14.625 24.4418 14.532 24.535L12 27.0669V24.5709L11 23.564V30H31V13H19V14H30ZM30 29H12V28.481L14.947 25.534C15.1568 25.6404 15.3887 25.6963 15.624 25.697C15.8094 25.6971 15.9929 25.6604 16.164 25.5892C16.3352 25.518 16.4905 25.4136 16.621 25.2819L19.928 21.975L23.188 24.691C23.4477 24.9077 23.7729 25.0304 24.111 25.0393C24.4491 25.0482 24.7803 24.9427 25.051 24.74L26.884 23.365L30 26.481V29ZM24.5 19C24.7967 19 25.0867 18.912 25.3334 18.7472C25.58 18.5823 25.7723 18.3481 25.8858 18.074C25.9993 17.7999 26.0291 17.4983 25.9712 17.2073C25.9133 16.9163 25.7704 16.6491 25.5607 16.4393C25.3509 16.2295 25.0836 16.0867 24.7926 16.0288C24.5017 15.9709 24.2001 16.0006 23.926 16.1141C23.6519 16.2277 23.4176 16.4199 23.2528 16.6666C23.088 16.9133 23 17.2033 23 17.5C23 17.8978 23.158 18.2793 23.4393 18.5606C23.7206 18.8419 24.1022 19 24.5 19ZM24.5 17C24.5989 17 24.6956 17.0293 24.7778 17.0842C24.86 17.1392 24.9241 17.2172 24.9619 17.3086C24.9998 17.4 25.0097 17.5005 24.9904 17.5975C24.9711 17.6945 24.9235 17.7836 24.8536 17.8535C24.7836 17.9234 24.6945 17.9711 24.5975 17.9903C24.5006 18.0096 24.4 17.9997 24.3087 17.9619C24.2173 17.924 24.1392 17.86 24.0843 17.7777C24.0293 17.6955 24 17.5988 24 17.5C24 17.3673 24.0527 17.2402 24.1464 17.1464C24.2402 17.0526 24.3674 17 24.5 17ZM13 22.74L17 18.714V11.294C17 9.29395 15.505 8.19995 13 8.19995C10.495 8.19995 9 9.39395 9 11.394V18.714L13 22.74ZM10 11.393C10 9.57995 11.631 9.19995 13 9.19995C14.369 9.19995 16 9.47995 16 11.294V18.302L13 21.322L10 18.302V11.393ZM13 15C13.3956 15 13.7822 14.8827 14.1111 14.6629C14.44 14.4431 14.6964 14.1308 14.8478 13.7653C14.9991 13.3999 15.0387 12.9977 14.9616 12.6098C14.8844 12.2218 14.6939 11.8654 14.4142 11.5857C14.1345 11.306 13.7781 11.1156 13.3902 11.0384C13.0022 10.9612 12.6001 11.0008 12.2346 11.1522C11.8692 11.3036 11.5568 11.5599 11.3371 11.8888C11.1173 12.2177 11 12.6044 11 13C11.0005 13.5302 11.2114 14.0386 11.5864 14.4136C11.9613 14.7885 12.4697 14.9994 13 15ZM13 12C13.1978 12 13.3911 12.0586 13.5556 12.1685C13.72 12.2784 13.8482 12.4345 13.9239 12.6173C13.9996 12.8 14.0194 13.0011 13.9808 13.195C13.9422 13.389 13.847 13.5672 13.7071 13.7071C13.5673 13.8469 13.3891 13.9422 13.1951 13.9807C13.0011 14.0193 12.8 13.9995 12.6173 13.9238C12.4346 13.8481 12.2784 13.72 12.1685 13.5555C12.0586 13.3911 12 13.1977 12 13C12.0003 12.7348 12.1057 12.4806 12.2932 12.2931C12.4807 12.1057 12.7349 12.0002 13 12Z" fill="#6A6A6A"/>
</svg>
