<svg width="40" height="41" viewBox="0 0 40 41" fill="none" xmlns="http://www.w3.org/2000/svg">
<rect x="0.5" y="0.599854" width="39" height="39" rx="19.5" fill="#363636"/>
<rect x="0.5" y="0.599854" width="39" height="39" rx="19.5" stroke="white"/>
<mask id="mask0_178_88" style="mask-type:luminance" maskUnits="userSpaceOnUse" x="10" y="9" width="20" height="22">
<path d="M29.4784 9.2666H10.5212V30.9333H29.4784V9.2666Z" fill="white"/>
</mask>
<g mask="url(#mask0_178_88)">
<path d="M22.6216 11.6736C22.541 11.6736 22.4603 11.6736 22.3796 11.5933L19.9596 10.2291L17.5395 11.5933C17.3378 11.7137 17.0555 11.6334 16.9345 11.4328C16.8538 11.2322 16.8942 10.9513 17.1362 10.831L19.7579 9.30628C19.9192 9.22603 20.0806 9.22603 20.2016 9.30628L22.8636 10.831C23.0653 10.9513 23.146 11.2322 23.025 11.4328C22.9443 11.5933 22.783 11.6736 22.6216 11.6736Z" fill="white"/>
</g>
<mask id="mask1_178_88" style="mask-type:luminance" maskUnits="userSpaceOnUse" x="10" y="9" width="20" height="22">
<path d="M29.4784 9.2666H10.5212V30.9333H29.4784V9.2666Z" fill="white"/>
</mask>
<g mask="url(#mask1_178_88)">
<path d="M19.9998 23.5509C19.7578 23.5509 19.5562 23.3503 19.5562 23.1096V20.1003C19.5562 19.8596 19.7578 19.6589 19.9998 19.6589C20.2418 19.6589 20.4435 19.8596 20.4435 20.1003V23.1096C20.4435 23.3503 20.2418 23.5509 19.9998 23.5509Z" fill="white"/>
</g>
<mask id="mask2_178_88" style="mask-type:luminance" maskUnits="userSpaceOnUse" x="10" y="9" width="20" height="22">
<path d="M29.4784 9.2666H10.5212V30.9333H29.4784V9.2666Z" fill="white"/>
</mask>
<g mask="url(#mask2_178_88)">
<path d="M10.9649 18.3742C10.7229 18.3742 10.5212 18.1735 10.5212 17.9328V14.9235C10.5212 14.6828 10.7229 14.4822 10.9649 14.4822C11.2069 14.4822 11.4086 14.6828 11.4086 14.9235V17.9328C11.4086 18.1735 11.2069 18.3742 10.9649 18.3742Z" fill="white"/>
</g>
<mask id="mask3_178_88" style="mask-type:luminance" maskUnits="userSpaceOnUse" x="10" y="9" width="20" height="22">
<path d="M29.4784 9.2666H10.5212V30.9333H29.4784V9.2666Z" fill="white"/>
</mask>
<g mask="url(#mask3_178_88)">
<path d="M28.994 18.3742C28.752 18.3742 28.5503 18.1735 28.5503 17.9328V14.9235C28.5503 14.6828 28.752 14.4822 28.994 14.4822C29.236 14.4822 29.4376 14.6828 29.4376 14.9235V17.9328C29.478 18.1735 29.2763 18.3742 28.994 18.3742Z" fill="white"/>
</g>
<mask id="mask4_178_88" style="mask-type:luminance" maskUnits="userSpaceOnUse" x="10" y="9" width="20" height="22">
<path d="M29.4784 9.2666H10.5212V30.9333H29.4784V9.2666Z" fill="white"/>
</mask>
<g mask="url(#mask4_178_88)">
<path d="M28.994 25.7172C28.752 25.7172 28.5503 25.5166 28.5503 25.2758V22.2666C28.5503 22.0258 28.752 21.8252 28.994 21.8252C29.236 21.8252 29.4376 22.0258 29.4376 22.2666V25.2758C29.478 25.5166 29.2763 25.7172 28.994 25.7172Z" fill="white"/>
</g>
<mask id="mask5_178_88" style="mask-type:luminance" maskUnits="userSpaceOnUse" x="10" y="9" width="20" height="22">
<path d="M29.4784 9.2666H10.5212V30.9333H29.4784V9.2666Z" fill="white"/>
</mask>
<g mask="url(#mask5_178_88)">
<path d="M10.9649 25.7172C10.7229 25.7172 10.5212 25.5166 10.5212 25.2758V22.2666C10.5212 22.0258 10.7229 21.8252 10.9649 21.8252C11.2069 21.8252 11.4086 22.0258 11.4086 22.2666V25.2758C11.4086 25.5166 11.2069 25.7172 10.9649 25.7172Z" fill="white"/>
</g>
<mask id="mask6_178_88" style="mask-type:luminance" maskUnits="userSpaceOnUse" x="10" y="9" width="20" height="22">
<path d="M29.4784 9.2666H10.5212V30.9333H29.4784V9.2666Z" fill="white"/>
</mask>
<g mask="url(#mask6_178_88)">
<path d="M19.9998 13.4395C19.7578 13.4395 19.5562 13.2388 19.5562 12.9981V9.70796C19.5562 9.46722 19.7578 9.2666 19.9998 9.2666C20.2418 9.2666 20.4435 9.46722 20.4435 9.70796V12.9981C20.4435 13.2388 20.2418 13.4395 19.9998 13.4395Z" fill="white"/>
</g>
<mask id="mask7_178_88" style="mask-type:luminance" maskUnits="userSpaceOnUse" x="10" y="9" width="20" height="22">
<path d="M29.4784 9.2666H10.5212V30.9333H29.4784V9.2666Z" fill="white"/>
</mask>
<g mask="url(#mask7_178_88)">
<path d="M19.9998 30.9337C19.7578 30.9337 19.5562 30.7331 19.5562 30.4924V27.4831C19.5562 27.2424 19.7578 27.0417 19.9998 27.0417C20.2418 27.0417 20.4435 27.2424 20.4435 27.4831V30.4924C20.4435 30.7331 20.2418 30.9337 19.9998 30.9337Z" fill="white"/>
</g>
<mask id="mask8_178_88" style="mask-type:luminance" maskUnits="userSpaceOnUse" x="10" y="9" width="20" height="22">
<path d="M29.4784 9.2666H10.5212V30.9333H29.4784V9.2666Z" fill="white"/>
</mask>
<g mask="url(#mask8_178_88)">
<path d="M19.9995 30.9336C19.9188 30.9336 19.8381 30.8935 19.7575 30.8534L17.0954 29.3287C16.8937 29.2083 16.813 28.9274 16.9341 28.7268C17.0551 28.5262 17.3374 28.446 17.5391 28.5663L19.9591 29.9706L22.3389 28.6064C22.5405 28.4861 22.8229 28.5663 22.9439 28.7669C23.0649 28.9676 22.9842 29.2484 22.7825 29.3688L20.1608 30.8935C20.1608 30.8935 20.0801 30.9336 19.9995 30.9336Z" fill="white"/>
</g>
<mask id="mask9_178_88" style="mask-type:luminance" maskUnits="userSpaceOnUse" x="10" y="9" width="20" height="22">
<path d="M29.4784 9.2666H10.5212V30.9333H29.4784V9.2666Z" fill="white"/>
</mask>
<g mask="url(#mask9_178_88)">
<path d="M19.9999 20.5413C19.9192 20.5413 19.8386 20.5413 19.7579 20.461L17.1362 18.9363C16.9345 18.816 16.8538 18.5351 16.9748 18.3345C17.0958 18.1339 17.3782 18.0536 17.5798 18.174L19.9999 19.5382L22.42 18.174C22.6216 18.0536 22.904 18.1339 23.025 18.3345C23.146 18.5351 23.0653 18.816 22.8636 18.9363L20.2016 20.461C20.1612 20.5012 20.0806 20.5413 19.9999 20.5413Z" fill="white"/>
</g>
<mask id="mask10_178_88" style="mask-type:luminance" maskUnits="userSpaceOnUse" x="10" y="9" width="20" height="22">
<path d="M29.4784 9.2666H10.5212V30.9333H29.4784V9.2666Z" fill="white"/>
</mask>
<g mask="url(#mask10_178_88)">
<path d="M26.3723 16.8499C26.211 16.8499 26.0496 16.7696 25.969 16.6091C25.848 16.4085 25.9286 16.1276 26.1303 16.0073L28.752 14.4826C28.9537 14.3622 29.236 14.4425 29.3571 14.6431C29.4781 14.8437 29.3974 15.1246 29.1957 15.2449L26.574 16.7696C26.5336 16.8499 26.453 16.8499 26.3723 16.8499Z" fill="white"/>
</g>
<mask id="mask11_178_88" style="mask-type:luminance" maskUnits="userSpaceOnUse" x="10" y="9" width="20" height="22">
<path d="M29.4784 9.2666H10.5212V30.9333H29.4784V9.2666Z" fill="white"/>
</mask>
<g mask="url(#mask11_178_88)">
<path d="M28.994 15.3247C28.9134 15.3247 28.8327 15.3247 28.752 15.2445L26.1303 13.7198C25.9286 13.5994 25.848 13.3185 25.969 13.1179C26.09 12.9173 26.3723 12.8371 26.574 12.9574L29.1957 14.4821C29.3974 14.6025 29.4781 14.8834 29.3571 15.084C29.3167 15.2445 29.1554 15.3247 28.994 15.3247Z" fill="white"/>
</g>
<mask id="mask12_178_88" style="mask-type:luminance" maskUnits="userSpaceOnUse" x="10" y="9" width="20" height="22">
<path d="M29.4784 9.2666H10.5212V30.9333H29.4784V9.2666Z" fill="white"/>
</mask>
<g mask="url(#mask12_178_88)">
<path d="M13.5871 16.8499C13.5064 16.8499 13.4257 16.8499 13.3451 16.7696L10.7233 15.2449C10.5216 15.1246 10.441 14.8437 10.562 14.6431C10.683 14.4425 10.9653 14.3622 11.167 14.4826L13.7887 16.0073C13.9904 16.1276 14.0711 16.4085 13.9501 16.6091C13.9097 16.7696 13.7484 16.8499 13.5871 16.8499Z" fill="white"/>
</g>
<mask id="mask13_178_88" style="mask-type:luminance" maskUnits="userSpaceOnUse" x="10" y="9" width="20" height="22">
<path d="M29.4784 9.2666H10.5212V30.9333H29.4784V9.2666Z" fill="white"/>
</mask>
<g mask="url(#mask13_178_88)">
<path d="M10.9653 15.3247C10.804 15.3247 10.6426 15.2445 10.562 15.084C10.441 14.8834 10.5216 14.6025 10.7233 14.4821L13.3451 12.9574C13.5467 12.8371 13.8291 12.9173 13.9501 13.1179C14.0711 13.3185 13.9904 13.5994 13.7887 13.7198L11.2073 15.2846C11.1267 15.3247 11.046 15.3247 10.9653 15.3247Z" fill="white"/>
</g>
<mask id="mask14_178_88" style="mask-type:luminance" maskUnits="userSpaceOnUse" x="10" y="9" width="20" height="22">
<path d="M29.4784 9.2666H10.5212V30.9333H29.4784V9.2666Z" fill="white"/>
</mask>
<g mask="url(#mask14_178_88)">
<path d="M26.3723 27.2422C26.211 27.2422 26.0496 27.162 25.969 27.0015C25.848 26.8008 25.9286 26.52 26.1303 26.3996L28.752 24.8749C28.9537 24.7545 29.236 24.8348 29.3571 25.0354C29.4781 25.236 29.3974 25.5169 29.1957 25.6373L26.574 27.162C26.5336 27.2021 26.453 27.2422 26.3723 27.2422Z" fill="white"/>
</g>
<mask id="mask15_178_88" style="mask-type:luminance" maskUnits="userSpaceOnUse" x="10" y="9" width="20" height="22">
<path d="M29.4784 9.2666H10.5212V30.9333H29.4784V9.2666Z" fill="white"/>
</mask>
<g mask="url(#mask15_178_88)">
<path d="M28.994 25.7171C28.9134 25.7171 28.8327 25.7171 28.752 25.6368L26.1303 24.1121C25.9286 23.9917 25.848 23.7109 25.969 23.5103C26.09 23.3096 26.3723 23.2294 26.574 23.3498L29.1957 24.8745C29.3974 24.9948 29.4781 25.2757 29.3571 25.4763C29.3167 25.6368 29.1554 25.7171 28.994 25.7171Z" fill="white"/>
</g>
<mask id="mask16_178_88" style="mask-type:luminance" maskUnits="userSpaceOnUse" x="10" y="9" width="20" height="22">
<path d="M29.4784 9.2666H10.5212V30.9333H29.4784V9.2666Z" fill="white"/>
</mask>
<g mask="url(#mask16_178_88)">
<path d="M13.5871 27.2419C13.5064 27.2419 13.4257 27.2419 13.3451 27.1616L10.7233 25.6771C10.5216 25.5567 10.441 25.2758 10.562 25.0752C10.683 24.8746 10.9653 24.7943 11.167 24.9147L13.7887 26.4394C13.9904 26.5598 14.0711 26.8406 13.9501 27.0413C13.9097 27.1616 13.7484 27.2419 13.5871 27.2419Z" fill="white"/>
</g>
<mask id="mask17_178_88" style="mask-type:luminance" maskUnits="userSpaceOnUse" x="10" y="9" width="20" height="22">
<path d="M29.4784 9.2666H10.5212V30.9333H29.4784V9.2666Z" fill="white"/>
</mask>
<g mask="url(#mask17_178_88)">
<path d="M10.9653 25.7171C10.804 25.7171 10.6426 25.6368 10.562 25.4763C10.441 25.2757 10.5216 24.9948 10.7233 24.8745L13.3451 23.3498C13.5467 23.2294 13.8291 23.3096 13.9501 23.5103C14.0711 23.7109 13.9904 23.9917 13.7887 24.1121L11.2073 25.6769C11.1267 25.7171 11.046 25.7171 10.9653 25.7171Z" fill="white"/>
</g>
<mask id="mask18_178_88" style="mask-type:luminance" maskUnits="userSpaceOnUse" x="10" y="9" width="20" height="22">
<path d="M29.4784 9.2666H10.5212V30.9333H29.4784V9.2666Z" fill="white"/>
</mask>
<g mask="url(#mask18_178_88)">
<g opacity="0.2">
<mask id="mask19_178_88" style="mask-type:luminance" maskUnits="userSpaceOnUse" x="10" y="9" width="11" height="7">
<path d="M20.2824 9.46753H10.7231V15.1651H20.2824V9.46753Z" fill="white"/>
</mask>
<g mask="url(#mask19_178_88)">
<path d="M10.9649 15.1653C10.8842 15.1653 10.8035 15.1252 10.7229 15.045C10.6422 14.9246 10.6825 14.7641 10.8035 14.6838L19.8788 9.46777C19.9998 9.38753 20.1611 9.42765 20.2418 9.54802C20.3225 9.66839 20.2821 9.82889 20.1611 9.90913L11.0859 15.1252C11.0456 15.1252 11.0052 15.1653 10.9649 15.1653Z" fill="white"/>
</g>
</g>
</g>
<mask id="mask20_178_88" style="mask-type:luminance" maskUnits="userSpaceOnUse" x="10" y="9" width="20" height="22">
<path d="M29.4784 9.2666H10.5212V30.9333H29.4784V9.2666Z" fill="white"/>
</mask>
<g mask="url(#mask20_178_88)">
<g opacity="0.2">
<mask id="mask21_178_88" style="mask-type:luminance" maskUnits="userSpaceOnUse" x="10" y="14" width="20" height="12">
<path d="M29.277 14.6433H10.7231V25.5569H29.277V14.6433Z" fill="white"/>
</mask>
<g mask="url(#mask21_178_88)">
<path d="M10.9649 25.5171C10.8842 25.5171 10.8035 25.4769 10.7229 25.3967C10.6422 25.2763 10.6825 25.1158 10.8035 25.0356L28.8733 14.6436C28.9944 14.5633 29.1557 14.6034 29.2364 14.7238C29.317 14.8442 29.2767 15.0047 29.1557 15.0849L11.0859 25.5171C11.0456 25.5171 11.0052 25.5171 10.9649 25.5171Z" fill="white"/>
</g>
</g>
</g>
<mask id="mask22_178_88" style="mask-type:luminance" maskUnits="userSpaceOnUse" x="10" y="9" width="20" height="22">
<path d="M29.4784 9.2666H10.5212V30.9333H29.4784V9.2666Z" fill="white"/>
</mask>
<g mask="url(#mask22_178_88)">
<g opacity="0.2">
<mask id="mask23_178_88" style="mask-type:luminance" maskUnits="userSpaceOnUse" x="19" y="9" width="11" height="7">
<path d="M29.2362 9.46753H19.7173V15.1651H29.2362V9.46753Z" fill="white"/>
</mask>
<g mask="url(#mask23_178_88)">
<path d="M28.9946 15.165C28.9542 15.165 28.9139 15.165 28.8736 15.1249L19.879 9.94893C19.758 9.86868 19.7176 9.70819 19.7983 9.58782C19.879 9.46745 20.0403 9.42732 20.1613 9.50757L29.1962 14.6835C29.3172 14.7638 29.3576 14.9243 29.2769 15.0446C29.1962 15.1249 29.1156 15.165 28.9946 15.165Z" fill="white"/>
</g>
</g>
</g>
<mask id="mask24_178_88" style="mask-type:luminance" maskUnits="userSpaceOnUse" x="10" y="9" width="20" height="22">
<path d="M29.4784 9.2666H10.5212V30.9333H29.4784V9.2666Z" fill="white"/>
</mask>
<g mask="url(#mask24_178_88)">
<g opacity="0.2">
<mask id="mask25_178_88" style="mask-type:luminance" maskUnits="userSpaceOnUse" x="10" y="14" width="20" height="12">
<path d="M29.277 14.6433H10.7231V25.5569H29.277V14.6433Z" fill="white"/>
</mask>
<g mask="url(#mask25_178_88)">
<path d="M28.9943 25.5167C28.954 25.5167 28.9136 25.5167 28.8733 25.4766L10.8438 15.1247C10.7228 15.0445 10.6825 14.884 10.7632 14.7636C10.8438 14.6432 11.0052 14.6031 11.1262 14.6834L29.196 25.0754C29.317 25.1556 29.3573 25.3161 29.2766 25.4365C29.196 25.4766 29.1153 25.5167 28.9943 25.5167Z" fill="white"/>
</g>
</g>
</g>
<mask id="mask26_178_88" style="mask-type:luminance" maskUnits="userSpaceOnUse" x="10" y="9" width="20" height="22">
<path d="M29.4784 9.2666H10.5212V30.9333H29.4784V9.2666Z" fill="white"/>
</mask>
<g mask="url(#mask26_178_88)">
<g opacity="0.2">
<mask id="mask27_178_88" style="mask-type:luminance" maskUnits="userSpaceOnUse" x="10" y="25" width="11" height="6">
<path d="M20.2824 25.0349H10.7231V30.7325H20.2824V25.0349Z" fill="white"/>
</mask>
<g mask="url(#mask27_178_88)">
<path d="M20 30.7327C19.9596 30.7327 19.9193 30.7327 19.879 30.6926L10.8441 25.4765C10.7231 25.3963 10.6827 25.2358 10.7634 25.1154C10.8441 24.995 11.0054 24.9549 11.1264 25.0352L20.1613 30.2512C20.2823 30.3315 20.3227 30.492 20.242 30.6123C20.1613 30.6926 20.0806 30.7327 20 30.7327Z" fill="white"/>
</g>
</g>
</g>
<mask id="mask28_178_88" style="mask-type:luminance" maskUnits="userSpaceOnUse" x="10" y="9" width="20" height="22">
<path d="M29.4784 9.2666H10.5212V30.9333H29.4784V9.2666Z" fill="white"/>
</mask>
<g mask="url(#mask28_178_88)">
<g opacity="0.2">
<mask id="mask29_178_88" style="mask-type:luminance" maskUnits="userSpaceOnUse" x="19" y="25" width="11" height="6">
<path d="M29.2362 25.0349H19.7173V30.7325H29.2362V25.0349Z" fill="white"/>
</mask>
<g mask="url(#mask29_178_88)">
<path d="M19.9998 30.7327C19.9191 30.7327 19.8385 30.6926 19.7578 30.6123C19.6771 30.492 19.7175 30.3315 19.8385 30.2512L28.8734 25.0352C28.9944 24.9549 29.1557 24.995 29.2364 25.1154C29.317 25.2358 29.2767 25.3963 29.1557 25.4765L20.1208 30.6926C20.0805 30.7327 20.0401 30.7327 19.9998 30.7327Z" fill="white"/>
</g>
</g>
</g>
<mask id="mask30_178_88" style="mask-type:luminance" maskUnits="userSpaceOnUse" x="10" y="9" width="20" height="22">
<path d="M29.4784 9.2666H10.5212V30.9333H29.4784V9.2666Z" fill="white"/>
</mask>
<g mask="url(#mask30_178_88)">
<g opacity="0.2">
<mask id="mask31_178_88" style="mask-type:luminance" maskUnits="userSpaceOnUse" x="10" y="14" width="2" height="12">
<path d="M11.2475 14.6433H10.7231V25.5569H11.2475V14.6433Z" fill="white"/>
</mask>
<g mask="url(#mask31_178_88)">
<path d="M10.9652 25.5168C10.8038 25.5168 10.7231 25.3964 10.7231 25.2761V14.8841C10.7231 14.7236 10.8441 14.6433 10.9652 14.6433C11.0862 14.6433 11.2072 14.7637 11.2072 14.8841V25.2761C11.2072 25.4366 11.0862 25.5168 10.9652 25.5168Z" fill="white"/>
</g>
</g>
</g>
<mask id="mask32_178_88" style="mask-type:luminance" maskUnits="userSpaceOnUse" x="10" y="9" width="20" height="22">
<path d="M29.4784 9.2666H10.5212V30.9333H29.4784V9.2666Z" fill="white"/>
</mask>
<g mask="url(#mask32_178_88)">
<g opacity="0.2">
<mask id="mask33_178_88" style="mask-type:luminance" maskUnits="userSpaceOnUse" x="28" y="14" width="2" height="12">
<path d="M29.2765 14.6433H28.7522V25.5569H29.2765V14.6433Z" fill="white"/>
</mask>
<g mask="url(#mask33_178_88)">
<path d="M28.9942 25.5168C28.8329 25.5168 28.7522 25.3964 28.7522 25.2761V14.8841C28.7522 14.7236 28.8732 14.6433 28.9942 14.6433C29.1152 14.6433 29.2362 14.7637 29.2362 14.8841V25.2761C29.2765 25.4366 29.1555 25.5168 28.9942 25.5168Z" fill="white"/>
</g>
</g>
</g>
<mask id="mask34_178_88" style="mask-type:luminance" maskUnits="userSpaceOnUse" x="10" y="9" width="20" height="22">
<path d="M29.4784 9.2666H10.5212V30.9333H29.4784V9.2666Z" fill="white"/>
</mask>
<g mask="url(#mask34_178_88)">
<g opacity="0.2">
<mask id="mask35_178_88" style="mask-type:luminance" maskUnits="userSpaceOnUse" x="19" y="9" width="2" height="22">
<path d="M20.2416 9.46753H19.7173V30.733H20.2416V9.46753Z" fill="white"/>
</mask>
<g mask="url(#mask35_178_88)">
<path d="M20.0001 30.6929C19.8387 30.6929 19.7581 30.5725 19.7581 30.4522V9.70827C19.7581 9.54778 19.8791 9.46753 20.0001 9.46753C20.1211 9.46753 20.2421 9.5879 20.2421 9.70827V30.4522C20.2421 30.5725 20.1211 30.6929 20.0001 30.6929Z" fill="white"/>
</g>
</g>
</g>
</svg>
