<svg width="40" height="41" viewBox="0 0 40 41" fill="none" xmlns="http://www.w3.org/2000/svg">
<rect x="0.5" y="0.599854" width="39" height="39" rx="19.5" fill="#363636"/>
<rect x="0.5" y="0.599854" width="39" height="39" rx="19.5" stroke="white"/>
<g clip-path="url(#clip0_178_401)">
<path d="M30 14.0998V25.1668L27.286 22.4528C27.2004 22.3673 27.0869 22.3154 26.9663 22.3068C26.8456 22.2982 26.7259 22.3333 26.629 22.4058L24.45 24.0398C24.3595 24.1075 24.2488 24.1428 24.1357 24.1399C24.0227 24.137 23.9139 24.0961 23.827 24.0238L20.218 21.0168C20.1216 20.9367 19.9987 20.8954 19.8735 20.9012C19.7483 20.9069 19.6297 20.9592 19.541 21.0478L15.914 24.6758C15.8667 24.7179 15.8114 24.7502 15.7514 24.7706C15.6913 24.791 15.6279 24.7991 15.5646 24.7945C15.5014 24.79 15.4398 24.7728 15.3833 24.744C15.3269 24.7152 15.2768 24.6753 15.236 24.6268C15.1409 24.5358 15.014 24.4856 14.8824 24.4871C14.7508 24.4886 14.625 24.5416 14.532 24.6348L12 27.1668V24.6708L11 23.6638V30.0998H31V13.0998H19V14.0998H30ZM30 29.0998H12V28.5808L14.947 25.6338C15.1568 25.7403 15.3887 25.7961 15.624 25.7968C15.8094 25.7969 15.9929 25.7603 16.164 25.6891C16.3352 25.6178 16.4905 25.5134 16.621 25.3818L19.928 22.0748L23.188 24.7908C23.4477 25.0075 23.7729 25.1303 24.111 25.1392C24.4491 25.1481 24.7803 25.0426 25.051 24.8398L26.884 23.4648L30 26.5808V29.0998ZM24.5 19.0998C24.7967 19.0998 25.0867 19.0118 25.3334 18.847C25.58 18.6822 25.7723 18.4479 25.8858 18.1738C25.9993 17.8997 26.0291 17.5981 25.9712 17.3072C25.9133 17.0162 25.7704 16.7489 25.5607 16.5391C25.3509 16.3294 25.0836 16.1865 24.7926 16.1286C24.5017 16.0707 24.2001 16.1005 23.926 16.214C23.6519 16.3275 23.4176 16.5198 23.2528 16.7664C23.088 17.0131 23 17.3031 23 17.5998C23 17.9976 23.158 18.3792 23.4393 18.6605C23.7206 18.9418 24.1022 19.0998 24.5 19.0998ZM24.5 17.0998C24.5989 17.0998 24.6956 17.1291 24.7778 17.1841C24.86 17.239 24.9241 17.3171 24.9619 17.4085C24.9998 17.4998 25.0097 17.6004 24.9904 17.6974C24.9711 17.7943 24.9235 17.8834 24.8536 17.9534C24.7836 18.0233 24.6945 18.0709 24.5975 18.0902C24.5006 18.1095 24.4 18.0996 24.3087 18.0617C24.2173 18.0239 24.1392 17.9598 24.0843 17.8776C24.0293 17.7954 24 17.6987 24 17.5998C24 17.4672 24.0527 17.34 24.1464 17.2463C24.2402 17.1525 24.3674 17.0998 24.5 17.0998ZM13 22.8398L17 18.8138V11.3938C17 9.3938 15.505 8.2998 13 8.2998C10.495 8.2998 9 9.4938 9 11.4938V18.8138L13 22.8398ZM10 11.4928C10 9.6798 11.631 9.2998 13 9.2998C14.369 9.2998 16 9.5798 16 11.3938V18.4018L13 21.4218L10 18.4018V11.4928ZM13 15.0998C13.3956 15.0998 13.7822 14.9825 14.1111 14.7627C14.44 14.543 14.6964 14.2306 14.8478 13.8652C14.9991 13.4997 15.0387 13.0976 14.9616 12.7096C14.8844 12.3217 14.6939 11.9653 14.4142 11.6856C14.1345 11.4059 13.7781 11.2154 13.3902 11.1382C13.0022 11.0611 12.6001 11.1007 12.2346 11.252C11.8692 11.4034 11.5568 11.6598 11.3371 11.9887C11.1173 12.3176 11 12.7042 11 13.0998C11.0005 13.6301 11.2114 14.1385 11.5864 14.5134C11.9613 14.8884 12.4697 15.0993 13 15.0998ZM13 12.0998C13.1978 12.0998 13.3911 12.1585 13.5556 12.2683C13.72 12.3782 13.8482 12.5344 13.9239 12.7171C13.9996 12.8998 14.0194 13.1009 13.9808 13.2949C13.9422 13.4889 13.847 13.6671 13.7071 13.8069C13.5673 13.9468 13.3891 14.042 13.1951 14.0806C13.0011 14.1192 12.8 14.0994 12.6173 14.0237C12.4346 13.948 12.2784 13.8198 12.1685 13.6554C12.0586 13.4909 12 13.2976 12 13.0998C12.0003 12.8347 12.1057 12.5805 12.2932 12.393C12.4807 12.2055 12.7349 12.1001 13 12.0998Z" fill="white"/>
</g>
<defs>
<clipPath id="clip0_178_401">
<rect width="24" height="24" fill="white" transform="translate(8 8.09985)"/>
</clipPath>
</defs>
</svg>
