<svg width="40" height="41" viewBox="0 0 40 41" fill="none" xmlns="http://www.w3.org/2000/svg">
<rect x="0.5" y="0.599854" width="39" height="39" rx="19.5" fill="#363636"/>
<rect x="0.5" y="0.599854" width="39" height="39" rx="19.5" stroke="white"/>
<g clip-path="url(#clip0_178_406)">
<path d="M12 8.09985L29 8.09985L29 18.0999L28 18.0999L28 9.09985L13 9.09985L13 18.0999L12 18.0999L12 8.09985ZM29 31.0999L29 21.0999L28 21.0999L28 30.0999L13 30.0999L13 21.0999L12 21.0999L12 31.0999L29 31.0999ZM32 20.0999L32 19.0999L30 19.0999L30 20.0999L32 20.0999ZM29 20.0999L29 19.0999L27 19.0999L27 20.0999L29 20.0999ZM26 20.0999L26 19.0999L24 19.0999L24 20.0999L26 20.0999ZM23 20.0999L23 19.0999L21 19.0999L21 20.0999L23 20.0999ZM20 20.0999L20 19.0999L18 19.0999L18 20.0999L20 20.0999ZM17 20.0999L17 19.0999L15 19.0999L15 20.0999L17 20.0999ZM14 20.0999L14 19.0999L12 19.0999L12 20.0999L14 20.0999ZM11 20.0999L11 19.0999L9 19.0999L9 20.0999L11 20.0999Z" fill="white"/>
</g>
<defs>
<clipPath id="clip0_178_406">
<rect width="24" height="24" fill="white" transform="translate(8 32.0999) rotate(-90)"/>
</clipPath>
</defs>
</svg>
