<svg width="40" height="40" viewBox="0 0 40 40" fill="none" xmlns="http://www.w3.org/2000/svg">
<rect x="0.5" y="0.5" width="39" height="39" rx="19.5" fill="#F89927"/>
<rect x="0.5" y="0.5" width="39" height="39" rx="19.5" stroke="#9A5B10"/>
<mask id="mask0_170_344" style="mask-type:luminance" maskUnits="userSpaceOnUse" x="10" y="9" width="20" height="22">
<path d="M29.4784 9.16675H10.5212V30.8335H29.4784V9.16675Z" fill="white"/>
</mask>
<g mask="url(#mask0_170_344)">
<path d="M22.6216 11.5737C22.541 11.5737 22.4603 11.5737 22.3796 11.4935L19.9596 10.1293L17.5395 11.4935C17.3378 11.6138 17.0555 11.5336 16.9345 11.333C16.8538 11.1324 16.8942 10.8515 17.1362 10.7311L19.7579 9.20643C19.9192 9.12618 20.0806 9.12618 20.2016 9.20643L22.8636 10.7311C23.0653 10.8515 23.146 11.1324 23.025 11.333C22.9443 11.4935 22.783 11.5737 22.6216 11.5737Z" fill="white"/>
</g>
<mask id="mask1_170_344" style="mask-type:luminance" maskUnits="userSpaceOnUse" x="10" y="9" width="20" height="22">
<path d="M29.4784 9.16675H10.5212V30.8335H29.4784V9.16675Z" fill="white"/>
</mask>
<g mask="url(#mask1_170_344)">
<path d="M19.9998 23.4511C19.7578 23.4511 19.5562 23.2505 19.5562 23.0097V20.0004C19.5562 19.7597 19.7578 19.5591 19.9998 19.5591C20.2418 19.5591 20.4435 19.7597 20.4435 20.0004V23.0097C20.4435 23.2505 20.2418 23.4511 19.9998 23.4511Z" fill="white"/>
</g>
<mask id="mask2_170_344" style="mask-type:luminance" maskUnits="userSpaceOnUse" x="10" y="9" width="20" height="22">
<path d="M29.4784 9.16675H10.5212V30.8335H29.4784V9.16675Z" fill="white"/>
</mask>
<g mask="url(#mask2_170_344)">
<path d="M10.9649 18.2743C10.7229 18.2743 10.5212 18.0737 10.5212 17.833V14.8237C10.5212 14.5829 10.7229 14.3823 10.9649 14.3823C11.2069 14.3823 11.4086 14.5829 11.4086 14.8237V17.833C11.4086 18.0737 11.2069 18.2743 10.9649 18.2743Z" fill="white"/>
</g>
<mask id="mask3_170_344" style="mask-type:luminance" maskUnits="userSpaceOnUse" x="10" y="9" width="20" height="22">
<path d="M29.4784 9.16675H10.5212V30.8335H29.4784V9.16675Z" fill="white"/>
</mask>
<g mask="url(#mask3_170_344)">
<path d="M28.994 18.2743C28.752 18.2743 28.5503 18.0737 28.5503 17.833V14.8237C28.5503 14.5829 28.752 14.3823 28.994 14.3823C29.236 14.3823 29.4376 14.5829 29.4376 14.8237V17.833C29.478 18.0737 29.2763 18.2743 28.994 18.2743Z" fill="white"/>
</g>
<mask id="mask4_170_344" style="mask-type:luminance" maskUnits="userSpaceOnUse" x="10" y="9" width="20" height="22">
<path d="M29.4784 9.16675H10.5212V30.8335H29.4784V9.16675Z" fill="white"/>
</mask>
<g mask="url(#mask4_170_344)">
<path d="M28.994 25.6173C28.752 25.6173 28.5503 25.4167 28.5503 25.176V22.1667C28.5503 21.926 28.752 21.7253 28.994 21.7253C29.236 21.7253 29.4376 21.926 29.4376 22.1667V25.176C29.478 25.4167 29.2763 25.6173 28.994 25.6173Z" fill="white"/>
</g>
<mask id="mask5_170_344" style="mask-type:luminance" maskUnits="userSpaceOnUse" x="10" y="9" width="20" height="22">
<path d="M29.4784 9.16675H10.5212V30.8335H29.4784V9.16675Z" fill="white"/>
</mask>
<g mask="url(#mask5_170_344)">
<path d="M10.9649 25.6173C10.7229 25.6173 10.5212 25.4167 10.5212 25.176V22.1667C10.5212 21.926 10.7229 21.7253 10.9649 21.7253C11.2069 21.7253 11.4086 21.926 11.4086 22.1667V25.176C11.4086 25.4167 11.2069 25.6173 10.9649 25.6173Z" fill="white"/>
</g>
<mask id="mask6_170_344" style="mask-type:luminance" maskUnits="userSpaceOnUse" x="10" y="9" width="20" height="22">
<path d="M29.4784 9.16675H10.5212V30.8335H29.4784V9.16675Z" fill="white"/>
</mask>
<g mask="url(#mask6_170_344)">
<path d="M19.9998 13.3396C19.7578 13.3396 19.5562 13.139 19.5562 12.8982V9.60811C19.5562 9.36737 19.7578 9.16675 19.9998 9.16675C20.2418 9.16675 20.4435 9.36737 20.4435 9.60811V12.8982C20.4435 13.139 20.2418 13.3396 19.9998 13.3396Z" fill="white"/>
</g>
<mask id="mask7_170_344" style="mask-type:luminance" maskUnits="userSpaceOnUse" x="10" y="9" width="20" height="22">
<path d="M29.4784 9.16675H10.5212V30.8335H29.4784V9.16675Z" fill="white"/>
</mask>
<g mask="url(#mask7_170_344)">
<path d="M19.9998 30.8339C19.7578 30.8339 19.5562 30.6333 19.5562 30.3925V27.3833C19.5562 27.1425 19.7578 26.9419 19.9998 26.9419C20.2418 26.9419 20.4435 27.1425 20.4435 27.3833V30.3925C20.4435 30.6333 20.2418 30.8339 19.9998 30.8339Z" fill="white"/>
</g>
<mask id="mask8_170_344" style="mask-type:luminance" maskUnits="userSpaceOnUse" x="10" y="9" width="20" height="22">
<path d="M29.4784 9.16675H10.5212V30.8335H29.4784V9.16675Z" fill="white"/>
</mask>
<g mask="url(#mask8_170_344)">
<path d="M19.9995 30.8338C19.9188 30.8338 19.8381 30.7936 19.7575 30.7535L17.0954 29.2288C16.8937 29.1084 16.813 28.8276 16.9341 28.627C17.0551 28.4263 17.3374 28.3461 17.5391 28.4665L19.9591 29.8708L22.3389 28.5066C22.5405 28.3862 22.8229 28.4665 22.9439 28.6671C23.0649 28.8677 22.9842 29.1486 22.7825 29.2689L20.1608 30.7936C20.1608 30.7936 20.0801 30.8338 19.9995 30.8338Z" fill="white"/>
</g>
<mask id="mask9_170_344" style="mask-type:luminance" maskUnits="userSpaceOnUse" x="10" y="9" width="20" height="22">
<path d="M29.4784 9.16675H10.5212V30.8335H29.4784V9.16675Z" fill="white"/>
</mask>
<g mask="url(#mask9_170_344)">
<path d="M19.9999 20.4414C19.9192 20.4414 19.8386 20.4414 19.7579 20.3612L17.1362 18.8365C16.9345 18.7161 16.8538 18.4352 16.9748 18.2346C17.0958 18.034 17.3782 17.9538 17.5798 18.0741L19.9999 19.4383L22.42 18.0741C22.6216 17.9538 22.904 18.034 23.025 18.2346C23.146 18.4352 23.0653 18.7161 22.8636 18.8365L20.2016 20.3612C20.1612 20.4013 20.0806 20.4414 19.9999 20.4414Z" fill="white"/>
</g>
<mask id="mask10_170_344" style="mask-type:luminance" maskUnits="userSpaceOnUse" x="10" y="9" width="20" height="22">
<path d="M29.4784 9.16675H10.5212V30.8335H29.4784V9.16675Z" fill="white"/>
</mask>
<g mask="url(#mask10_170_344)">
<path d="M26.3723 16.75C26.211 16.75 26.0496 16.6698 25.969 16.5093C25.848 16.3087 25.9286 16.0278 26.1303 15.9074L28.752 14.3827C28.9537 14.2624 29.236 14.3426 29.3571 14.5432C29.4781 14.7438 29.3974 15.0247 29.1957 15.1451L26.574 16.6698C26.5336 16.75 26.453 16.75 26.3723 16.75Z" fill="white"/>
</g>
<mask id="mask11_170_344" style="mask-type:luminance" maskUnits="userSpaceOnUse" x="10" y="9" width="20" height="22">
<path d="M29.4784 9.16675H10.5212V30.8335H29.4784V9.16675Z" fill="white"/>
</mask>
<g mask="url(#mask11_170_344)">
<path d="M28.994 15.2249C28.9134 15.2249 28.8327 15.2249 28.752 15.1446L26.1303 13.6199C25.9286 13.4996 25.848 13.2187 25.969 13.0181C26.09 12.8175 26.3723 12.7372 26.574 12.8576L29.1957 14.3823C29.3974 14.5026 29.4781 14.7835 29.3571 14.9841C29.3167 15.1446 29.1554 15.2249 28.994 15.2249Z" fill="white"/>
</g>
<mask id="mask12_170_344" style="mask-type:luminance" maskUnits="userSpaceOnUse" x="10" y="9" width="20" height="22">
<path d="M29.4784 9.16675H10.5212V30.8335H29.4784V9.16675Z" fill="white"/>
</mask>
<g mask="url(#mask12_170_344)">
<path d="M13.5871 16.75C13.5064 16.75 13.4257 16.75 13.3451 16.6698L10.7233 15.1451C10.5216 15.0247 10.441 14.7438 10.562 14.5432C10.683 14.3426 10.9653 14.2624 11.167 14.3827L13.7887 15.9074C13.9904 16.0278 14.0711 16.3087 13.9501 16.5093C13.9097 16.6698 13.7484 16.75 13.5871 16.75Z" fill="white"/>
</g>
<mask id="mask13_170_344" style="mask-type:luminance" maskUnits="userSpaceOnUse" x="10" y="9" width="20" height="22">
<path d="M29.4784 9.16675H10.5212V30.8335H29.4784V9.16675Z" fill="white"/>
</mask>
<g mask="url(#mask13_170_344)">
<path d="M10.9653 15.2249C10.804 15.2249 10.6426 15.1446 10.562 14.9841C10.441 14.7835 10.5216 14.5026 10.7233 14.3823L13.3451 12.8576C13.5467 12.7372 13.8291 12.8175 13.9501 13.0181C14.0711 13.2187 13.9904 13.4996 13.7887 13.6199L11.2073 15.1848C11.1267 15.2249 11.046 15.2249 10.9653 15.2249Z" fill="white"/>
</g>
<mask id="mask14_170_344" style="mask-type:luminance" maskUnits="userSpaceOnUse" x="10" y="9" width="20" height="22">
<path d="M29.4784 9.16675H10.5212V30.8335H29.4784V9.16675Z" fill="white"/>
</mask>
<g mask="url(#mask14_170_344)">
<path d="M26.3723 27.1424C26.211 27.1424 26.0496 27.0621 25.969 26.9016C25.848 26.701 25.9286 26.4201 26.1303 26.2998L28.752 24.7751C28.9537 24.6547 29.236 24.7349 29.3571 24.9356C29.4781 25.1362 29.3974 25.417 29.1957 25.5374L26.574 27.0621C26.5336 27.1022 26.453 27.1424 26.3723 27.1424Z" fill="white"/>
</g>
<mask id="mask15_170_344" style="mask-type:luminance" maskUnits="userSpaceOnUse" x="10" y="9" width="20" height="22">
<path d="M29.4784 9.16675H10.5212V30.8335H29.4784V9.16675Z" fill="white"/>
</mask>
<g mask="url(#mask15_170_344)">
<path d="M28.994 25.6172C28.9134 25.6172 28.8327 25.6172 28.752 25.537L26.1303 24.0123C25.9286 23.8919 25.848 23.611 25.969 23.4104C26.09 23.2098 26.3723 23.1295 26.574 23.2499L29.1957 24.7746C29.3974 24.895 29.4781 25.1758 29.3571 25.3765C29.3167 25.537 29.1554 25.6172 28.994 25.6172Z" fill="white"/>
</g>
<mask id="mask16_170_344" style="mask-type:luminance" maskUnits="userSpaceOnUse" x="10" y="9" width="20" height="22">
<path d="M29.4784 9.16675H10.5212V30.8335H29.4784V9.16675Z" fill="white"/>
</mask>
<g mask="url(#mask16_170_344)">
<path d="M13.5871 27.142C13.5064 27.142 13.4257 27.142 13.3451 27.0618L10.7233 25.5772C10.5216 25.4568 10.441 25.176 10.562 24.9754C10.683 24.7747 10.9653 24.6945 11.167 24.8149L13.7887 26.3396C13.9904 26.4599 14.0711 26.7408 13.9501 26.9414C13.9097 27.0618 13.7484 27.142 13.5871 27.142Z" fill="white"/>
</g>
<mask id="mask17_170_344" style="mask-type:luminance" maskUnits="userSpaceOnUse" x="10" y="9" width="20" height="22">
<path d="M29.4784 9.16675H10.5212V30.8335H29.4784V9.16675Z" fill="white"/>
</mask>
<g mask="url(#mask17_170_344)">
<path d="M10.9653 25.6172C10.804 25.6172 10.6426 25.537 10.562 25.3765C10.441 25.1758 10.5216 24.895 10.7233 24.7746L13.3451 23.2499C13.5467 23.1295 13.8291 23.2098 13.9501 23.4104C14.0711 23.611 13.9904 23.8919 13.7887 24.0123L11.2073 25.5771C11.1267 25.6172 11.046 25.6172 10.9653 25.6172Z" fill="white"/>
</g>
<mask id="mask18_170_344" style="mask-type:luminance" maskUnits="userSpaceOnUse" x="10" y="9" width="20" height="22">
<path d="M29.4784 9.16675H10.5212V30.8335H29.4784V9.16675Z" fill="white"/>
</mask>
<g mask="url(#mask18_170_344)">
<g opacity="0.2">
<mask id="mask19_170_344" style="mask-type:luminance" maskUnits="userSpaceOnUse" x="10" y="9" width="11" height="7">
<path d="M20.2824 9.36768H10.7231V15.0652H20.2824V9.36768Z" fill="white"/>
</mask>
<g mask="url(#mask19_170_344)">
<path d="M10.9649 15.0655C10.8842 15.0655 10.8035 15.0253 10.7229 14.9451C10.6422 14.8247 10.6825 14.6642 10.8035 14.584L19.8788 9.36792C19.9998 9.28767 20.1611 9.3278 20.2418 9.44817C20.3225 9.56854 20.2821 9.72903 20.1611 9.80928L11.0859 15.0253C11.0456 15.0253 11.0052 15.0655 10.9649 15.0655Z" fill="white"/>
</g>
</g>
</g>
<mask id="mask20_170_344" style="mask-type:luminance" maskUnits="userSpaceOnUse" x="10" y="9" width="20" height="22">
<path d="M29.4784 9.16675H10.5212V30.8335H29.4784V9.16675Z" fill="white"/>
</mask>
<g mask="url(#mask20_170_344)">
<g opacity="0.2">
<mask id="mask21_170_344" style="mask-type:luminance" maskUnits="userSpaceOnUse" x="10" y="14" width="20" height="12">
<path d="M29.277 14.5435H10.7231V25.4571H29.277V14.5435Z" fill="white"/>
</mask>
<g mask="url(#mask21_170_344)">
<path d="M10.9649 25.4172C10.8842 25.4172 10.8035 25.3771 10.7229 25.2968C10.6422 25.1765 10.6825 25.016 10.8035 24.9357L28.8733 14.5437C28.9944 14.4635 29.1557 14.5036 29.2364 14.6239C29.317 14.7443 29.2767 14.9048 29.1557 14.9851L11.0859 25.4172C11.0456 25.4172 11.0052 25.4172 10.9649 25.4172Z" fill="white"/>
</g>
</g>
</g>
<mask id="mask22_170_344" style="mask-type:luminance" maskUnits="userSpaceOnUse" x="10" y="9" width="20" height="22">
<path d="M29.4784 9.16675H10.5212V30.8335H29.4784V9.16675Z" fill="white"/>
</mask>
<g mask="url(#mask22_170_344)">
<g opacity="0.2">
<mask id="mask23_170_344" style="mask-type:luminance" maskUnits="userSpaceOnUse" x="19" y="9" width="11" height="7">
<path d="M29.2362 9.36768H19.7173V15.0652H29.2362V9.36768Z" fill="white"/>
</mask>
<g mask="url(#mask23_170_344)">
<path d="M28.9946 15.0651C28.9542 15.0651 28.9139 15.0651 28.8736 15.025L19.879 9.84908C19.758 9.76883 19.7176 9.60833 19.7983 9.48796C19.879 9.36759 20.0403 9.32747 20.1613 9.40772L29.1962 14.5837C29.3172 14.6639 29.3576 14.8244 29.2769 14.9448C29.1962 15.025 29.1156 15.0651 28.9946 15.0651Z" fill="white"/>
</g>
</g>
</g>
<mask id="mask24_170_344" style="mask-type:luminance" maskUnits="userSpaceOnUse" x="10" y="9" width="20" height="22">
<path d="M29.4784 9.16675H10.5212V30.8335H29.4784V9.16675Z" fill="white"/>
</mask>
<g mask="url(#mask24_170_344)">
<g opacity="0.2">
<mask id="mask25_170_344" style="mask-type:luminance" maskUnits="userSpaceOnUse" x="10" y="14" width="20" height="12">
<path d="M29.277 14.5435H10.7231V25.4571H29.277V14.5435Z" fill="white"/>
</mask>
<g mask="url(#mask25_170_344)">
<path d="M28.9943 25.4169C28.954 25.4169 28.9136 25.4169 28.8733 25.3767L10.8438 15.0249C10.7228 14.9446 10.6825 14.7841 10.7632 14.6637C10.8438 14.5434 11.0052 14.5033 11.1262 14.5835L29.196 24.9755C29.317 25.0558 29.3573 25.2163 29.2766 25.3366C29.196 25.3767 29.1153 25.4169 28.9943 25.4169Z" fill="white"/>
</g>
</g>
</g>
<mask id="mask26_170_344" style="mask-type:luminance" maskUnits="userSpaceOnUse" x="10" y="9" width="20" height="22">
<path d="M29.4784 9.16675H10.5212V30.8335H29.4784V9.16675Z" fill="white"/>
</mask>
<g mask="url(#mask26_170_344)">
<g opacity="0.2">
<mask id="mask27_170_344" style="mask-type:luminance" maskUnits="userSpaceOnUse" x="10" y="24" width="11" height="7">
<path d="M20.2824 24.9351H10.7231V30.6326H20.2824V24.9351Z" fill="white"/>
</mask>
<g mask="url(#mask27_170_344)">
<path d="M20 30.6329C19.9596 30.6329 19.9193 30.6329 19.879 30.5927L10.8441 25.3767C10.7231 25.2964 10.6827 25.1359 10.7634 25.0156C10.8441 24.8952 11.0054 24.8551 11.1264 24.9353L20.1613 30.1514C20.2823 30.2316 20.3227 30.3921 20.242 30.5125C20.1613 30.5927 20.0806 30.6329 20 30.6329Z" fill="white"/>
</g>
</g>
</g>
<mask id="mask28_170_344" style="mask-type:luminance" maskUnits="userSpaceOnUse" x="10" y="9" width="20" height="22">
<path d="M29.4784 9.16675H10.5212V30.8335H29.4784V9.16675Z" fill="white"/>
</mask>
<g mask="url(#mask28_170_344)">
<g opacity="0.2">
<mask id="mask29_170_344" style="mask-type:luminance" maskUnits="userSpaceOnUse" x="19" y="24" width="11" height="7">
<path d="M29.2362 24.9351H19.7173V30.6326H29.2362V24.9351Z" fill="white"/>
</mask>
<g mask="url(#mask29_170_344)">
<path d="M19.9998 30.6329C19.9191 30.6329 19.8385 30.5927 19.7578 30.5125C19.6771 30.3921 19.7175 30.2316 19.8385 30.1514L28.8734 24.9353C28.9944 24.8551 29.1557 24.8952 29.2364 25.0156C29.317 25.1359 29.2767 25.2964 29.1557 25.3767L20.1208 30.5927C20.0805 30.6329 20.0401 30.6329 19.9998 30.6329Z" fill="white"/>
</g>
</g>
</g>
<mask id="mask30_170_344" style="mask-type:luminance" maskUnits="userSpaceOnUse" x="10" y="9" width="20" height="22">
<path d="M29.4784 9.16675H10.5212V30.8335H29.4784V9.16675Z" fill="white"/>
</mask>
<g mask="url(#mask30_170_344)">
<g opacity="0.2">
<mask id="mask31_170_344" style="mask-type:luminance" maskUnits="userSpaceOnUse" x="10" y="14" width="2" height="12">
<path d="M11.2475 14.5435H10.7231V25.4571H11.2475V14.5435Z" fill="white"/>
</mask>
<g mask="url(#mask31_170_344)">
<path d="M10.9652 25.417C10.8038 25.417 10.7231 25.2966 10.7231 25.1762V14.7842C10.7231 14.6237 10.8441 14.5435 10.9652 14.5435C11.0862 14.5435 11.2072 14.6638 11.2072 14.7842V25.1762C11.2072 25.3367 11.0862 25.417 10.9652 25.417Z" fill="white"/>
</g>
</g>
</g>
<mask id="mask32_170_344" style="mask-type:luminance" maskUnits="userSpaceOnUse" x="10" y="9" width="20" height="22">
<path d="M29.4784 9.16675H10.5212V30.8335H29.4784V9.16675Z" fill="white"/>
</mask>
<g mask="url(#mask32_170_344)">
<g opacity="0.2">
<mask id="mask33_170_344" style="mask-type:luminance" maskUnits="userSpaceOnUse" x="28" y="14" width="2" height="12">
<path d="M29.2765 14.5435H28.7522V25.4571H29.2765V14.5435Z" fill="white"/>
</mask>
<g mask="url(#mask33_170_344)">
<path d="M28.9942 25.417C28.8329 25.417 28.7522 25.2966 28.7522 25.1762V14.7842C28.7522 14.6237 28.8732 14.5435 28.9942 14.5435C29.1152 14.5435 29.2362 14.6638 29.2362 14.7842V25.1762C29.2765 25.3367 29.1555 25.417 28.9942 25.417Z" fill="white"/>
</g>
</g>
</g>
<mask id="mask34_170_344" style="mask-type:luminance" maskUnits="userSpaceOnUse" x="10" y="9" width="20" height="22">
<path d="M29.4784 9.16675H10.5212V30.8335H29.4784V9.16675Z" fill="white"/>
</mask>
<g mask="url(#mask34_170_344)">
<g opacity="0.2">
<mask id="mask35_170_344" style="mask-type:luminance" maskUnits="userSpaceOnUse" x="19" y="9" width="2" height="22">
<path d="M20.2416 9.36768H19.7173V30.6332H20.2416V9.36768Z" fill="white"/>
</mask>
<g mask="url(#mask35_170_344)">
<path d="M20.0001 30.5931C19.8387 30.5931 19.7581 30.4727 19.7581 30.3523V9.60842C19.7581 9.44792 19.8791 9.36768 20.0001 9.36768C20.1211 9.36768 20.2421 9.48805 20.2421 9.60842V30.3523C20.2421 30.4727 20.1211 30.5931 20.0001 30.5931Z" fill="white"/>
</g>
</g>
</g>
</svg>
